# xmcd
#
# Track frame offsets:
#	150
#	12732
#	24767
#	40672
#	58545
#	75497
#	90605
#	102102
#	119687
#	134012
#	148577
#	160607
#	173580
#	186422
#	199487
#	213870
#	224080
#	238400
#	250582
#	263837
#
# Disc length: 3673 seconds
#
# Revision: 0
# Processed by: cddbd v1.4b41PL3 Copyright (c) Steve Scherf et al.
# Submitted via: EZCDDA 4.3.3.2
#
DISCID=200e5714
DTITLE=Bobby Bare - The Masters
DYEAR=1900
DGENRE=
TTITLE0=Green Green Grass Of Home
TTITLE1=Houston
TTITLE2=Sunday Morning Coming Down
TTITLE3=Homecoming
TTITLE4=The Son Of Hickory Holler's Tramp
TTITLE5=(Margie's At) The Lincoln Park Inn
TTITLE6=Come On Home And Sing The Blues To Daddy
TTITLE7=Up Against The Wall Redneck Mother
TTITLE8=Cowboys And Daddies
TTITLE9=Saginaw, Machigan
TTITLE10=Streets Of Baltimore
TTITLE11=Folsom Prison Blues
TTITLE12=Detroit City
TTITLE13=Miller's Cave
TTITLE14=Marie Laveaux
TTITLE15=Abilene
TTITLE16=Faster Horses
TTITLE17=The Long Black Veil
TTITLE18=Long Black Limousine
TTITLE19=I Wonder Where You Are Tonight
EXTD=
EXTT0=
EXTT1=
EXTT2=
EXTT3=
EXTT4=
EXTT5=
EXTT6=
EXTT7=
EXTT8=
EXTT9=
EXTT10=
EXTT11=
EXTT12=
EXTT13=
EXTT14=
EXTT15=
EXTT16=
EXTT17=
EXTT18=
EXTT19=
PLAYORDER=
